<svg version="1.1" width="1132" height="637.5" viewBox="0 0 1132 637.5" xmlns="http://www.w3.org/2000/svg" xmlns:xlink="http://www.w3.org/1999/xlink" overflow="hidden"><defs></defs><linearGradient x1="1108.32" y1="645.493" x2="12.4877" y2="-14.7576" gradientUnits="userSpaceOnUse" id="SVGID_1_"><stop offset="0" stop-color="#488FCD"/><stop offset="1" stop-color="#109A48"/></linearGradient><rect x="0" y="0" width="1132" height="637.5" fill="url(#SVGID_1_)"/><g id="KPN-monochroom-wit_1_"><g><path d=" M 997.6 584.9 C 998.1 583.1 998.9 580.8 999.8 578.7 C 1001.1 575.5 1002.5 572.1 1002.5 569.1 C 1002.5 566.4 1001.3 563.6 999.3 561.6 C 997.5 559.8 994.1 557.6 988.3 557.6 C 987.1 557.6 986.1 557.7 985.2 557.8 C 985.5 558.7 985.7 559.7 985.8 560.8 C 986.5 560.7 987.4 560.6 988.3 560.6 C 993 560.6 995.7 562.3 997.2 563.7 C 998.7 565.2 999.6 567.2 999.6 569.1 C 999.6 571.6 998.3 574.6 997.1 577.6 C 996.2 579.7 995.3 582.2 994.8 584.2 C 993.6 589 991.7 596.5 987 596.5 C 985.2 596.5 983.1 595.3 981.2 593.8 C 980.3 594.3 979.2 594.7 978.1 595.1 C 980.8 597.5 983.8 599.5 987 599.5 C 993.9 599.5 996.3 590.2 997.6 584.9" fill="#FFFFFF"/><path d=" M 955.9 565.1 C 954.7 562.1 953.5 558.2 953.5 554.9 C 953.5 549.1 954.9 544.4 957.4 541.9 C 958.9 540.4 960.7 539.7 962.9 539.7 C 968.6 539.7 979.3 544.9 983.8 554.6 C 984.8 554.4 985.8 554.3 987 554.3 C 982.2 542.7 969.7 536.7 962.9 536.7 C 953.7 536.7 950.4 546.1 950.4 554.9 C 950.4 559.1 951.9 563.5 953 566.2 C 954 565.8 954.9 565.4 955.9 565.1" fill="#FFFFFF"/><path d=" M 976.1 589 C 974.4 589.6 972.4 590 970 590 C 963 590 955.3 586.9 950.5 582 C 948 579.5 946.6 576.9 946.6 574.8 C 946.6 571.7 947.9 569.5 950.2 567.8 C 949.9 567 949.5 566 949.1 564.9 C 945.9 567 943.6 570 943.6 574.8 C 943.6 577.8 945.3 581.1 948.3 584.1 C 952.6 588.4 960.5 593 969.9 593 C 973.2 593 976 592.3 978.2 591.3 C 977.6 590.5 976.8 589.7 976.1 589" fill="#FFFFFF"/><path d=" M 1072.3 561.6 C 1068.6 561.6 1065.5 562.3 1062.6 563.4 L 1062.6 582.1 L 1068.9 582.1 L 1068.9 567.1 C 1069.8 566.7 1070.9 566.5 1072.1 566.5 C 1075.5 566.5 1076.1 568.6 1076.1 572.4 L 1076.1 582.2 L 1082.4 582.2 L 1082.4 571.5 C 1082.5 565.5 1080.5 561.6 1072.3 561.6" fill="#FFFFFF"/><rect x="1012" y="554.7" width="6.3" height="27.5" fill="#FFFFFF"/><path d=" M 1025.5 582.2 L 1032.9 582.2 L 1025.1 571.1 L 1032.3 562.4 L 1025.2 562.4 L 1018.3 571.3 Z" fill="#FFFFFF"/><path d=" M 1046.3 566.4 C 1049 566.4 1050.9 568.1 1050.9 572.1 C 1050.9 575.9 1049.5 578 1046.1 578 C 1045.1 578 1043.9 577.8 1043.3 577.6 L 1043.3 567.1 C 1044.1 566.6 1045.2 566.4 1046.3 566.4 M 1036.9 563.4 L 1036.9 589.8 L 1043.2 589.8 L 1043.2 582.3 C 1044.5 582.5 1045.6 582.6 1046.8 582.6 C 1053.7 582.6 1057.3 578.6 1057.3 572 C 1057.3 565.3 1053.7 561.6 1046.3 561.6 C 1043 561.6 1039.5 562.4 1036.9 563.4" fill="#FFFFFF"/><path d=" M 972.2 564 L 972.2 560.9 C 971.5 560.7 970.6 560.6 969.7 560.6 C 966.1 560.6 964.3 563 964.3 565.5 C 964.3 567.9 965.2 570.1 968.4 575.2 C 969.7 575 971 574.9 972.3 574.9 C 969.5 569.6 968.8 567.8 968.8 566.4 C 968.8 564.8 969.7 564 971.5 564 C 971.8 564 972 564 972.2 564" fill="#FFFFFF"/><path d=" M 962.3 568.6 C 962 567.9 961.8 566.8 961.8 565.9 C 958.9 565.8 956.7 567.4 956.7 569.8 C 956.7 571.7 957.7 573.3 961.6 576.7 C 962.6 576.4 964 576 965.1 575.7 C 961.2 572.1 960.6 571.1 960.6 570 C 960.7 569.3 961.3 568.8 962.3 568.6" fill="#FFFFFF"/><path d=" M 974.9 564 L 974.9 560.9 C 975.6 560.7 976.5 560.6 977.4 560.6 C 981 560.6 982.8 563 982.8 565.5 C 982.8 567.9 981.9 570.1 978.7 575.2 C 977.4 575 976.1 574.9 974.8 574.9 C 977.6 569.6 978.3 567.8 978.3 566.4 C 978.3 564.8 977.4 564 975.6 564 C 975.3 564 975.1 564 974.9 564" fill="#FFFFFF"/><path d=" M 984.8 568.6 C 985.1 567.9 985.3 566.8 985.3 565.9 C 988.2 565.8 990.4 567.4 990.4 569.8 C 990.4 571.7 989.4 573.3 985.5 576.7 C 984.5 576.4 983.1 576 982 575.7 C 985.9 572.1 986.5 571.1 986.5 570 C 986.4 569.3 985.8 568.8 984.8 568.6" fill="#FFFFFF"/><path d=" M 973.6 581.5 C 976.5 581.5 979.5 581.9 982.6 582.8 L 983.7 579.3 C 980.2 578.3 976.8 577.8 973.7 577.8 C 970.5 577.8 967.1 578.2 963.7 579.3 L 964.8 582.8 C 967.7 581.9 970.6 581.5 973.6 581.5" fill="#FFFFFF"/><rect x="971.3" y="553.4" width="4.5" height="4.5" fill="#FFFFFF" transform="matrix(0.7072,-0.707,0.707,0.7072,-107.808,851.061)"/></g></g></svg>